<?xml version="1.0" encoding="UTF-8" standalone="no"?>
<!-- Created with Inkscape (http://www.inkscape.org/) -->

<svg
   width="8.9264736mm"
   height="8.7910109mm"
   viewBox="0 0 8.9264734 8.7910107"
   version="1.1"
   id="svg5"
   inkscape:version="1.1 (c4e8f9ed74, 2021-05-24)"
   sodipodi:docname="favicon.svg"
   xmlns:inkscape="http://www.inkscape.org/namespaces/inkscape"
   xmlns:sodipodi="http://sodipodi.sourceforge.net/DTD/sodipodi-0.dtd"
   xmlns="http://www.w3.org/2000/svg"
   xmlns:svg="http://www.w3.org/2000/svg">
  <sodipodi:namedview
     id="namedview7"
     pagecolor="#505050"
     bordercolor="#eeeeee"
     borderopacity="1"
     inkscape:pageshadow="0"
     inkscape:pageopacity="0"
     inkscape:pagecheckerboard="0"
     inkscape:document-units="mm"
     showgrid="false"
     inkscape:zoom="8.285333"
     inkscape:cx="31.50145"
     inkscape:cy="7.784841"
     inkscape:window-width="2560"
     inkscape:window-height="1016"
     inkscape:window-x="1920"
     inkscape:window-y="0"
     inkscape:window-maximized="1"
     inkscape:current-layer="layer1"
     fit-margin-top="0"
     fit-margin-left="0"
     fit-margin-right="0"
     fit-margin-bottom="0" />
  <defs
     id="defs2" />
  <g
     inkscape:label="Capa 1"
     inkscape:groupmode="layer"
     id="layer1"
     transform="translate(-43.685687,-71.687293)">
    <g
       id="g56809"
       transform="translate(0.00350885,0.23662671)"
       style="fill:#333333" />
    <path
       id="text1904"
       style="font-style:normal;font-variant:normal;font-weight:bold;font-stretch:normal;font-size:4.62479px;line-height:1.25;font-family:'Source Code Pro';-inkscape-font-specification:'Source Code Pro Bold';fill:#808080;fill-opacity:1;stroke:none;stroke-width:0.180662"
       d="m 51.117653,72.527396 c -0.164798,0.129485 -0.300054,0.235566 -0.405996,0.306193 0.0412,0.123599 0.09435,0.22347 0.223831,0.411811 0.164798,-0.147142 0.182629,-0.164794 0.382741,-0.317821 -0.01766,-0.03531 -0.02946,-0.05817 -0.07655,-0.134686 -0.03531,-0.07063 -0.04109,-0.07124 -0.08818,-0.188948 z m -0.187979,1.206362 c -0.100056,0 -0.447583,0.194686 -0.930207,0.518397 l -0.01163,0.164724 c 0.359025,-0.194227 0.376281,-0.200576 0.429252,-0.200576 0.04709,0 0.07073,0.03603 0.07073,0.100772 0,0.0824 -0.01733,0.164504 -0.105618,0.499986 -0.276625,1.024104 -0.277124,1.024266 -0.277124,1.177293 0,0.141256 0.05318,0.235459 0.141469,0.235459 0.100056,0 0.258781,-0.07701 0.570721,-0.277124 0.111827,-0.07063 0.224403,-0.140535 0.33623,-0.217049 0.05297,-0.02943 0.0941,-0.05957 0.164725,-0.100772 l 0.02326,-0.164724 -0.0998,0.05329 c -0.40611,0.223655 -0.476838,0.2529 -0.547466,0.2529 -0.06474,0 -0.105617,-0.06467 -0.105617,-0.164724 0,-0.100056 -4.33e-4,-0.100008 0.193794,-0.876914 0.217769,-0.894619 0.218017,-0.894749 0.218017,-0.941834 0,-0.03531 -0.02953,-0.05911 -0.07073,-0.05911 z m -6.369977,0.03876 v 5.653912 h 1.05811 v -1.75189 c 0,-0.633039 -0.104022,-2.012089 -0.164724,-2.619113 h 0.02616 l 0.407935,1.508679 0.441848,1.361396 h 0.624983 l 0.433127,-1.361396 0.433128,-1.508679 h 0.02616 C 47.794394,75.662451 47.6817,77.041501 47.6817,77.67454 v 1.751889 h 1.075551 V 73.772517 H 47.42202 l -0.555217,2.002851 -0.190886,0.780017 h -0.03488 L 46.450148,75.775368 45.8959,73.772517 Z m 5.1675,2.621193 -9e-6,0.534393 h 1.874948 l 9e-6,-0.534393 z m 1.531925,0.748868 c -0.429652,0 -0.982531,0.50583 -0.982531,0.900169 0,0.182455 0.09417,0.323632 0.317821,0.482544 0.294283,0.205998 0.335262,0.259825 0.335262,0.406966 0,0.211883 -0.270446,0.45832 -0.499986,0.45832 -0.129484,0 -0.229895,-0.07012 -0.288751,-0.199607 -0.0412,-0.08828 -0.05322,-0.176743 -0.05911,-0.382741 -0.06474,0.05297 -0.112112,0.08215 -0.135654,0.0998 -0.04709,0.02943 -0.09916,0.05867 -0.152128,0.09399 -0.0059,0 -0.0595,0.04131 -0.106586,0.07073 -0.0059,0.05297 -0.01163,0.100341 -0.01163,0.135655 0,0.258969 0.177065,0.429252 0.436034,0.429252 0.188341,0 0.434704,-0.07034 0.623044,-0.182166 0.35314,-0.200112 0.559094,-0.500269 0.559094,-0.794551 0,-0.217769 -0.03466,-0.26492 -0.370145,-0.470918 -0.200113,-0.129484 -0.282938,-0.241341 -0.282938,-0.394369 0,-0.200112 0.171002,-0.376927 0.371114,-0.376927 0.13537,0 0.240732,0.06485 0.364331,0.229645 0.200112,-0.194227 0.20061,-0.194366 0.277124,-0.306193 -0.117713,-0.141256 -0.229571,-0.199607 -0.394369,-0.199607 z"
       sodipodi:nodetypes="cccccccsccsscsscccccsscsscccsccccccccscccccccccccccccsscsscccccsscscssccss" />
    <rect
       style="fill:none;stroke:#808080;stroke-width:0.266313;stroke-opacity:1"
       id="rect1014"
       width="8.660161"
       height="8.5246983"
       x="43.818844"
       y="71.82045" />
  </g>
</svg>
